HIERARCHY
ROOT joint_Root
{
	OFFSET 0.0 0.0 0.0
	CHANNELS 6 Xposition Yposition Zposition Zrotation Xrotation Yrotation 
	JOINT Hips
	{
		OFFSET 4.5925 91.4895 -427.239
		CHANNELS 6 Xposition Yposition Zposition Zrotation Xrotation Yrotation 
		JOINT Spine
		{
			OFFSET 15.7357 0.0 0.0
			CHANNELS 6 Xposition Yposition Zposition Zrotation Xrotation Yrotation 
			JOINT Chest
			{
				OFFSET 8.98455 -0.406207 0.0
				CHANNELS 6 Xposition Yposition Zposition Zrotation Xrotation Yrotation 
				JOINT Neck
				{
					OFFSET 16.3773 0.0 0.0
					CHANNELS 6 Xposition Yposition Zposition Zrotation Xrotation Yrotation 
					JOINT Head
					{
						OFFSET 6.45672 0.0 0.0
						CHANNELS 6 Xposition Yposition Zposition Zrotation Xrotation Yrotation 
						End Site
						{
							OFFSET 0.0 0.0 0.0
						}
					}
				}
				JOINT Shoulder_L
				{
					OFFSET 12.9942 -0.242716 4.98039
					CHANNELS 6 Xposition Yposition Zposition Zrotation Xrotation Yrotation 
					JOINT UpperArm_L
					{
						OFFSET 5.34809 0.0 0.0
						CHANNELS 6 Xposition Yposition Zposition Zrotation Xrotation Yrotation 
						JOINT LowerArm_L
						{
							OFFSET 24.3286 1.87007e-05 0.0
							CHANNELS 6 Xposition Yposition Zposition Zrotation Xrotation Yrotation 
							JOINT Hand_L
							{
								OFFSET 22.2916 0.0 0.0
								CHANNELS 6 Xposition Yposition Zposition Zrotation Xrotation Yrotation 
								End Site
								{
									OFFSET 0.0 0.0 0.0
								}
							}
						}
					}
				}
				JOINT Shoulder_R
				{
					OFFSET 12.9945 -0.242716 -4.98039
					CHANNELS 6 Xposition Yposition Zposition Zrotation Xrotation Yrotation 
					JOINT UpperArm_R
					{
						OFFSET -5.34813 0.0 0.0
						CHANNELS 6 Xposition Yposition Zposition Zrotation Xrotation Yrotation 
						JOINT LowerArm_R
						{
							OFFSET -24.3289 0.000322201 0.0
							CHANNELS 6 Xposition Yposition Zposition Zrotation Xrotation Yrotation 
							JOINT Hand_R
							{
								OFFSET -22.2915 -0.000108084 0.0
								CHANNELS 6 Xposition Yposition Zposition Zrotation Xrotation Yrotation 
								End Site
								{
									OFFSET 0.0 0.0 0.0
								}
							}
						}
					}
				}
			}
		}
		JOINT UpperLeg_L
		{
			OFFSET -2.19248 -6.46944 0.0
			CHANNELS 6 Xposition Yposition Zposition Zrotation Xrotation Yrotation 
			JOINT LowerLeg_L
			{
				OFFSET 39.0811 0.0 -1.23785e-05
				CHANNELS 6 Xposition Yposition Zposition Zrotation Xrotation Yrotation 
				JOINT Foot_L
				{
					OFFSET 40.9854 0.0 -1.26872e-05
					CHANNELS 6 Xposition Yposition Zposition Zrotation Xrotation Yrotation 
					JOINT Toes_L
					{
						OFFSET 11.7543 0.0 0.0
						CHANNELS 6 Xposition Yposition Zposition Zrotation Xrotation Yrotation 
						End Site
						{
							OFFSET 0.0 0.0 0.0
						}
					}
				}
			}
		}
		JOINT UpperLeg_R
		{
			OFFSET -2.19251 6.46944 0.0
			CHANNELS 6 Xposition Yposition Zposition Zrotation Xrotation Yrotation 
			JOINT LowerLeg_R
			{
				OFFSET -39.0811 -0.00228153 -0.0401928
				CHANNELS 6 Xposition Yposition Zposition Zrotation Xrotation Yrotation 
				JOINT Foot_R
				{
					OFFSET -40.9854 0.0 0.0
					CHANNELS 6 Xposition Yposition Zposition Zrotation Xrotation Yrotation 
					JOINT Toes_R
					{
						OFFSET -11.7543 0.0 0.0
						CHANNELS 6 Xposition Yposition Zposition Zrotation Xrotation Yrotation 
						End Site
						{
							OFFSET 0.0 0.0 0.0
						}
					}
				}
			}
		}
	}
}
MOTION
Frames:	9
Frame Time:	0.0333333
0.000000 0.000000 0.000000 0.000000 0.000000 -0.000000 -2.654840 81.015400 -0.974980 86.260600 -1.774940 10.644900 15.735700 0.000005 -0.000001 86.431800 80.437800 -86.439000 8.984550 -0.406207 -0.000000 11.323000 -1.181100 0.102801 16.377300 -0.000001 -0.000001 -2.564290 -2.881900 2.647710 6.456720 -0.000001 -0.000000 -6.095330 -0.671609 0.981115 12.994200 -0.242716 4.980390 -91.056300 3.582880 -73.562100 5.348090 -0.000007 -0.000001 -59.461500 29.406300 -15.209800 24.328600 0.000019 0.000005 11.123000 19.538500 -30.450700 22.291600 -0.000001 0.000005 12.749600 5.239260 1.711760 12.994500 -0.242716 -4.980390 88.461200 8.768010 -80.005000 -5.348130 -0.000001 -0.000004 -52.423900 30.992000 -16.656700 -24.328900 0.000322 -0.000009 0.604298 1.180980 -27.171700 -22.291500 -0.000108 -0.000004 4.977680 5.479640 -5.712890 -2.192480 -6.469440 -0.000000 -168.790000 -12.837500 -17.170300 39.081100 -0.000007 -0.000012 -0.368782 0.163948 66.032700 40.985400 -0.000006 -0.000013 1.800800 8.414970 -87.635600 11.754300 -0.000000 0.000003 -0.000209 -0.001925 -16.650100 -2.192510 6.469440 -0.000001 -178.254000 13.466600 163.305000 -39.081100 -0.002282 -0.040193 0.109104 -0.049999 64.734400 -40.985400 0.000008 0.000006 7.931530 0.774968 -87.083000 -11.754300 -0.000006 -0.000006 -0.253633 -0.316535 -17.212600
0.000000 0.000000 0.000000 0.000000 0.000000 -0.000000 -3.049890 82.107400 -0.514942 86.348300 -0.433474 10.277500 15.735700 0.000005 -0.000001 86.219700 81.131300 -87.181000 8.984550 -0.406207 -0.000000 9.925030 -1.180240 -1.818680 16.377300 -0.000001 -0.000001 -2.080400 -2.845390 2.491500 6.456720 -0.000001 -0.000000 -5.604620 -1.123430 2.272940 12.994200 -0.242716 4.980390 -91.088400 3.557380 -72.976300 5.348090 -0.000007 -0.000001 -60.276900 26.010700 -13.682100 24.328600 0.000019 0.000005 10.451200 19.323500 -29.136600 22.291600 -0.000001 0.000005 13.560000 5.207900 2.519990 12.994500 -0.242716 -4.980390 88.572000 7.613210 -79.342400 -5.348130 -0.000001 -0.000004 -49.055300 28.720300 -17.236100 -24.328900 0.000322 -0.000009 1.166870 2.347170 -26.464100 -22.291500 -0.000108 -0.000004 -2.308900 5.440140 -4.242230 -2.192480 -6.469440 -0.000000 -168.829000 -12.054200 -16.034400 39.081100 -0.000007 -0.000012 -0.326125 0.166420 62.966000 40.985400 -0.000006 -0.000013 1.583440 9.044200 -86.239900 11.754300 -0.000000 0.000003 -0.000190 -0.001777 -16.644700 -2.192510 6.469440 -0.000001 -178.112000 14.143100 164.836000 -39.081100 -0.002282 -0.040193 0.106792 -0.055857 61.668800 -40.985400 0.000008 0.000006 7.822330 0.300002 -85.865300 -11.754300 -0.000006 -0.000006 -0.241298 -0.303396 -17.347100
0.000000 0.000000 0.000000 0.000000 0.000000 -0.000000 -3.308830 84.138100 0.064934 86.332200 0.923556 9.526790 15.735700 0.000005 -0.000001 84.830900 82.088300 -86.763500 8.984550 -0.406207 -0.000000 7.973760 -1.423070 -3.762330 16.377300 -0.000001 -0.000001 -0.898335 -2.812320 2.534870 6.456720 -0.000001 -0.000000 -5.110640 -1.458060 3.806880 12.994200 -0.242716 4.980390 -91.056500 3.286190 -72.166000 5.348090 -0.000007 -0.000001 -61.475300 22.456300 -10.871200 24.328600 0.000019 0.000005 9.054050 17.191900 -28.330400 22.291600 -0.000001 0.000005 13.668200 5.200650 2.704370 12.994500 -0.242716 -4.980390 88.829400 5.739020 -78.450200 -5.348130 -0.000001 -0.000004 -41.916900 24.799600 -19.939400 -24.328900 0.000322 -0.000009 1.342360 2.712780 -26.358300 -22.291500 -0.000108 -0.000004 -8.120770 5.377650 -2.207080 -2.192480 -6.469440 -0.000000 -169.071000 -11.030200 -13.822200 39.081100 -0.000007 -0.000012 -0.295342 0.191447 57.048700 40.985400 -0.000006 -0.000013 1.101030 9.341910 -83.483300 11.754300 -0.000000 0.000003 -0.000149 -0.001448 -16.632600 -2.192510 6.469440 -0.000001 -178.071000 15.263500 167.464000 -39.081100 -0.002282 -0.040193 0.094211 -0.062092 55.689600 -40.985400 0.000008 0.000006 7.647780 0.700359 -83.059700 -11.754300 -0.000006 -0.000006 -0.355198 -0.441360 -17.563600
0.000000 0.000000 0.000000 0.000000 0.000000 -0.000000 -3.409100 86.450200 0.650050 86.309800 1.714290 8.369870 15.735700 0.000005 -0.000001 82.577000 83.197400 -85.341200 8.984550 -0.406207 -0.000000 5.691910 -1.703490 -5.437720 16.377300 -0.000001 -0.000001 0.371967 -2.605140 2.375870 6.456720 -0.000001 -0.000000 -4.215890 -1.489260 5.032420 12.994200 -0.242716 4.980390 -90.932800 2.732040 -71.139200 5.348090 -0.000007 -0.000001 -62.287100 20.032500 -7.509570 24.328600 0.000019 0.000005 8.279060 15.694800 -28.276000 22.291600 -0.000001 0.000005 12.775500 5.207730 2.523040 12.994500 -0.242716 -4.980390 89.180700 3.755390 -77.679600 -5.348130 -0.000001 -0.000004 -32.463100 16.128700 -24.089700 -24.328900 0.000322 -0.000009 1.510980 3.160150 -25.586200 -22.291500 -0.000108 -0.000004 -7.873740 5.360160 -1.681440 -2.192480 -6.469440 -0.000000 -169.406000 -10.483500 -11.082700 39.081100 -0.000007 -0.000012 -0.261945 0.223160 49.571900 40.985400 -0.000006 -0.000013 0.520357 9.425530 -80.006700 11.754300 -0.000000 0.000003 -0.000092 -0.000955 -16.614200 -2.192510 6.469440 -0.000001 -178.060000 16.310300 170.362000 -39.081100 -0.002282 -0.040193 0.076230 -0.065163 48.237500 -40.985400 0.000008 0.000006 7.536900 1.747050 -79.257400 -11.754300 -0.000006 -0.000006 -0.403818 -0.501982 -18.043100
0.000000 0.000000 0.000000 0.000000 0.000000 -0.000000 -3.249160 88.402500 1.072610 86.589800 1.800620 6.924490 15.735700 0.000005 -0.000001 81.190900 84.289200 -84.534300 8.984550 -0.406207 -0.000000 3.483480 -1.622310 -6.630420 16.377300 -0.000001 -0.000001 1.373320 -2.334060 1.860900 6.456720 -0.000001 -0.000000 -3.575070 -1.412780 5.168280 12.994200 -0.242716 4.980390 -90.785000 2.167890 -70.088500 5.348090 -0.000007 -0.000001 -62.579900 19.009600 -4.551800 24.328600 0.000019 0.000005 8.774580 16.377400 -28.697100 22.291600 -0.000001 0.000005 11.086000 5.214770 2.346840 12.994500 -0.242716 -4.980390 89.706200 1.363100 -77.844100 -5.348130 -0.000001 -0.000004 -23.564600 0.750472 -27.148300 -24.328900 0.000322 -0.000009 0.675245 1.495760 -24.315000 -22.291500 -0.000108 -0.000004 -1.348360 5.402940 -2.937630 -2.192480 -6.469440 -0.000000 -170.266000 -10.289700 -8.652400 39.081100 -0.000007 -0.000012 -0.227166 0.249922 42.269700 40.985400 -0.000006 -0.000013 -0.036758 8.936520 -76.590800 11.754300 -0.000000 0.000003 -0.000051 -0.000579 -16.600000 -2.192510 6.469440 -0.000001 -178.456000 17.222600 172.599000 -39.081100 -0.002282 -0.040193 0.056911 -0.061098 41.279100 -40.985400 0.000008 0.000006 7.230610 3.468010 -75.489400 -11.754300 -0.000006 -0.000006 -0.437191 -0.543418 -18.571800
0.000000 0.000000 0.000000 0.000000 0.000000 -0.000000 -2.947310 89.720800 1.261570 86.861000 1.988930 5.464750 15.735700 0.000005 -0.000001 81.955400 85.100900 -85.512900 8.984550 -0.406207 -0.000000 1.909250 -1.188810 -7.088530 16.377300 -0.000001 -0.000001 1.586950 -2.243510 1.211390 6.456720 -0.000001 -0.000000 -3.442120 -1.515440 4.457520 12.994200 -0.242716 4.980390 -90.737900 1.957900 -69.344200 5.348090 -0.000007 -0.000001 -62.063400 19.365900 -2.823340 24.328600 0.000019 0.000005 9.606560 17.715800 -29.083400 22.291600 -0.000001 0.000005 9.721550 5.213950 2.368980 12.994500 -0.242716 -4.980390 90.469700 -2.382120 -78.832000 -5.348130 -0.000001 -0.000004 -16.596600 -19.909600 -27.453400 -24.328900 0.000322 -0.000009 -1.437550 -3.165430 -24.405700 -22.291500 -0.000108 -0.000004 10.841100 5.540190 -7.859870 -2.192480 -6.469440 -0.000000 -171.264000 -9.709760 -7.261830 39.081100 -0.000007 -0.000012 -0.198010 0.266252 36.638400 40.985400 -0.000006 -0.000013 -0.422184 8.132550 -73.880700 11.754300 -0.000000 0.000003 -0.000050 -0.000562 -16.599400 -2.192510 6.469440 -0.000001 -178.925000 18.654400 173.909000 -39.081100 -0.002282 -0.040193 0.042938 -0.054658 35.957600 -40.985400 0.000008 0.000006 7.053240 5.474560 -72.650900 -11.754300 -0.000006 -0.000006 -0.540020 -0.662497 -18.848700
0.000000 0.000000 0.000000 0.000000 0.000000 -0.000000 -2.858740 90.499700 1.196350 87.090800 2.397810 3.801810 15.735700 0.000005 -0.000001 85.038900 85.710800 -88.636900 8.984550 -0.406207 -0.000000 0.774138 -0.522359 -7.186830 16.377300 -0.000001 -0.000001 1.349530 -2.358140 0.982809 6.456720 -0.000001 -0.000000 -3.932230 -1.762590 3.187410 12.994200 -0.242716 4.980390 -90.795500 2.076520 -69.033800 5.348090 -0.000007 -0.000001 -60.736400 19.617000 -1.979580 24.328600 0.000019 0.000005 10.326200 18.714600 -29.590800 22.291600 -0.000001 0.000005 9.220130 5.209840 2.471340 12.994500 -0.242716 -4.980390 91.448000 -7.271370 -78.709000 -5.348130 -0.000001 -0.000004 -11.635300 -41.632100 -27.342900 -24.328900 0.000322 -0.000009 -4.005130 -7.516090 -28.154900 -22.291500 -0.000108 -0.000004 24.872200 5.624000 -12.604300 -2.192480 -6.469440 -0.000000 -171.938000 -9.686070 -7.263470 39.081100 -0.000007 -0.000012 -0.175552 0.270906 32.944300 40.985400 -0.000006 -0.000013 -0.552253 8.174100 -71.902000 11.754300 -0.000000 0.000003 -0.000041 -0.000471 -16.595900 -2.192510 6.469440 -0.000001 -178.854000 19.769100 174.024000 -39.081100 -0.002282 -0.040193 0.035769 -0.051468 32.248200 -40.985400 0.000008 0.000006 7.040370 6.583750 -71.006300 -11.754300 -0.000006 -0.000006 -0.402505 -0.504633 -18.785100
0.000000 0.000000 0.000000 0.000000 0.000000 -0.000000 -2.952480 90.952300 1.166350 87.456700 3.331530 2.671470 15.735700 0.000005 -0.000001 87.241300 86.025900 -90.908200 8.984550 -0.406207 -0.000000 0.179141 -0.139973 -7.328630 16.377300 -0.000001 -0.000001 1.105940 -3.082960 1.987950 6.456720 -0.000001 -0.000000 -4.571870 -1.751400 0.986597 12.994200 -0.242716 4.980390 -90.930800 2.394810 -68.752800 5.348090 -0.000007 -0.000001 -58.931200 18.918100 -1.419420 24.328600 0.000019 0.000005 10.966700 19.390400 -30.270200 22.291600 -0.000001 0.000005 9.732340 5.197130 2.789930 12.994500 -0.242716 -4.980390 92.755200 -11.996100 -76.968200 -5.348130 -0.000001 -0.000004 -7.013740 -59.145600 -28.437000 -24.328900 0.000322 -0.000009 -2.662560 -4.104050 -33.002200 -22.291500 -0.000108 -0.000004 34.231400 5.646260 -14.350500 -2.192480 -6.469440 -0.000000 -172.338000 -10.356100 -7.366550 39.081100 -0.000007 -0.000012 -0.149207 0.253760 30.455100 40.985400 -0.000006 -0.000013 -0.407693 9.564230 -70.482600 11.754300 -0.000000 0.000003 -0.000047 -0.000539 -16.598500 -2.192510 6.469440 -0.000001 -178.852000 21.051800 174.253000 -39.081100 -0.002282 -0.040193 0.032823 -0.051897 29.632400 -40.985400 0.000008 0.000006 7.308480 7.046940 -70.369700 -11.754300 -0.000006 -0.000006 -0.117512 -0.176797 -18.521400
0.000000 0.000000 0.000000 0.000000 0.000000 -0.000000 -3.253610 91.219000 1.237130 87.732100 4.612090 1.923160 15.735700 0.000005 -0.000001 86.167700 86.293600 -89.935300 8.984550 -0.406207 -0.000000 -0.366199 -0.228292 -7.531720 16.377300 -0.000001 -0.000001 1.805290 -3.841990 3.632730 6.456720 -0.000001 -0.000000 -5.050120 -2.057960 -0.087600 12.994200 -0.242716 4.980390 -90.951100 2.387760 -68.274700 5.348090 -0.000007 -0.000001 -58.138300 16.009200 -0.943101 24.328600 0.000019 0.000005 11.812200 20.891100 -30.390700 22.291600 -0.000001 0.000005 11.336200 5.179580 3.222860 12.994500 -0.242716 -4.980390 94.259700 -15.833200 -74.733300 -5.348130 -0.000001 -0.000004 10.664900 -63.809600 -18.401500 -24.328900 0.000322 -0.000009 -3.510220 -5.183570 -34.164600 -22.291500 -0.000108 -0.000004 36.003300 5.670030 -17.421100 -2.192480 -6.469440 -0.000000 -172.406000 -10.863900 -7.457810 39.081100 -0.000007 -0.000012 -0.135659 0.247298 28.747800 40.985400 -0.000006 -0.000013 -0.344420 11.288200 -69.484900 11.754300 -0.000000 0.000003 -0.000046 -0.000528 -16.598100 -2.192510 6.469440 -0.000001 -178.730000 22.605200 174.539000 -39.081100 -0.002282 -0.040193 0.030444 -0.051437 27.815700 -40.985400 0.000008 0.000006 7.493670 7.243420 -70.046600 -11.754300 -0.000006 -0.000006 -0.003559 -0.046769 -18.475300
